<svg width="155" height="48" viewBox="0 0 155 48" fill="none" xmlns="http://www.w3.org/2000/svg">
<path d="M104 18.95L109.5 18L114 19.3993L116 21.6459H102L104 18.95Z" fill="#20A6DF"/>
<rect x="102" y="21.6459" width="14" height="5.39189" fill="#E7348B"/>
<rect x="102" y="27.0378" width="14" height="5.39189" fill="#F7A823"/>
<path d="M102 32.4297H116L114.5 35.1257L109.5 37L104.5 35.575L102 32.4297Z" fill="#C1D566"/>
<path d="M128 18.95L133.5 18L138 19.3993L140 21.6459H126L128 18.95Z" fill="#20A6DF"/>
<rect x="126" y="21.6459" width="14" height="5.39189" fill="#E7348B"/>
<rect x="126" y="27.0378" width="14" height="5.39189" fill="#F7A823"/>
<path d="M126 32.4297H140L138.5 35.1257L133.5 37L128.5 35.575L126 32.4297Z" fill="#C1D566"/>
<path d="M3.52273 39V9.90909H6.875V20.6477H7.15909C7.4053 20.2689 7.74621 19.786 8.18182 19.1989C8.62689 18.6023 9.26136 18.072 10.0852 17.608C10.9186 17.1345 12.0455 16.8977 13.4659 16.8977C15.303 16.8977 16.9223 17.357 18.3239 18.2756C19.7254 19.1941 20.8191 20.4962 21.6051 22.1818C22.3911 23.8674 22.7841 25.8561 22.7841 28.1477C22.7841 30.4583 22.3911 32.4612 21.6051 34.1562C20.8191 35.8419 19.7301 37.1487 18.3381 38.0767C16.946 38.9953 15.3409 39.4545 13.5227 39.4545C12.1212 39.4545 10.9991 39.2225 10.1562 38.7585C9.31345 38.285 8.66477 37.75 8.21023 37.1534C7.75568 36.5473 7.4053 36.0455 7.15909 35.6477H6.76136V39H3.52273ZM6.81818 28.0909C6.81818 29.7386 7.05966 31.1922 7.54261 32.4517C8.02557 33.7017 8.73106 34.6818 9.65909 35.392C10.5871 36.0928 11.7235 36.4432 13.0682 36.4432C14.4697 36.4432 15.6392 36.0739 16.5767 35.3352C17.5237 34.5871 18.2339 33.5833 18.7074 32.3239C19.1903 31.0549 19.4318 29.6439 19.4318 28.0909C19.4318 26.5568 19.1951 25.1742 18.7216 23.9432C18.2576 22.7027 17.5521 21.7225 16.6051 21.0028C15.6676 20.2737 14.4886 19.9091 13.0682 19.9091C11.7045 19.9091 10.5587 20.2547 9.63068 20.946C8.70265 21.6278 8.00189 22.5843 7.52841 23.8153C7.05492 25.0369 6.81818 26.4621 6.81818 28.0909ZM34.3324 39.5114C32.9498 39.5114 31.6951 39.2509 30.5682 38.7301C29.4413 38.1998 28.5464 37.4375 27.8835 36.4432C27.2206 35.4394 26.8892 34.2273 26.8892 32.8068C26.8892 31.5568 27.1354 30.5436 27.6278 29.767C28.1203 28.9811 28.7784 28.3655 29.6023 27.9205C30.4261 27.4754 31.3352 27.1439 32.3295 26.9261C33.3333 26.6989 34.3419 26.5189 35.3551 26.3864C36.6809 26.2159 37.7557 26.0881 38.5795 26.0028C39.4129 25.9081 40.0189 25.7519 40.3977 25.5341C40.786 25.3163 40.9801 24.9375 40.9801 24.3977V24.2841C40.9801 22.8826 40.5966 21.7936 39.8295 21.017C39.072 20.2405 37.9214 19.8523 36.3778 19.8523C34.7775 19.8523 33.5227 20.2027 32.6136 20.9034C31.7045 21.6042 31.0653 22.3523 30.696 23.1477L27.5142 22.0114C28.0824 20.6856 28.84 19.6534 29.7869 18.9148C30.7434 18.1667 31.785 17.6458 32.9119 17.3523C34.0483 17.0492 35.1657 16.8977 36.2642 16.8977C36.965 16.8977 37.7699 16.983 38.679 17.1534C39.5975 17.3144 40.483 17.6506 41.3352 18.1619C42.197 18.6733 42.9119 19.4451 43.4801 20.4773C44.0483 21.5095 44.3324 22.892 44.3324 24.625V39H40.9801V36.0455H40.8097C40.5824 36.5189 40.2036 37.0256 39.6733 37.5653C39.143 38.1051 38.4375 38.5644 37.5568 38.9432C36.6761 39.322 35.6013 39.5114 34.3324 39.5114ZM34.8438 36.5C36.1695 36.5 37.2869 36.2396 38.196 35.7188C39.1146 35.1979 39.8059 34.5256 40.2699 33.7017C40.7434 32.8778 40.9801 32.0114 40.9801 31.1023V28.0341C40.8381 28.2045 40.5256 28.3608 40.0426 28.5028C39.5691 28.6354 39.0199 28.7538 38.3949 28.858C37.7794 28.9527 37.178 29.0379 36.5909 29.1136C36.0133 29.1799 35.5445 29.2367 35.1847 29.2841C34.3134 29.3977 33.4991 29.5824 32.7415 29.8381C31.9934 30.0843 31.3873 30.4583 30.9233 30.9602C30.4688 31.4527 30.2415 32.125 30.2415 32.9773C30.2415 34.142 30.6723 35.0227 31.5341 35.6193C32.4053 36.2064 33.5085 36.5 34.8438 36.5ZM50.451 39V17.1818H53.6896V20.4773H53.9169C54.3146 19.3977 55.0343 18.5218 56.076 17.8494C57.1177 17.1771 58.2919 16.8409 59.5987 16.8409C59.8449 16.8409 60.1527 16.8456 60.522 16.8551C60.8913 16.8646 61.1707 16.8788 61.3601 16.8977V20.3068C61.2464 20.2784 60.986 20.2358 60.5788 20.179C60.1811 20.1127 59.7597 20.0795 59.3146 20.0795C58.254 20.0795 57.3071 20.3021 56.4737 20.7472C55.6499 21.1828 54.9964 21.7888 54.5135 22.5653C54.04 23.3324 53.8033 24.2083 53.8033 25.1932V39H50.451ZM80.7884 22.0682L77.777 22.9205C77.5876 22.4186 77.3082 21.9309 76.9389 21.4574C76.5791 20.9744 76.0866 20.5767 75.4616 20.2642C74.8366 19.9517 74.0365 19.7955 73.0611 19.7955C71.7259 19.7955 70.6132 20.1032 69.723 20.7188C68.8423 21.3248 68.402 22.0966 68.402 23.0341C68.402 23.8674 68.705 24.5256 69.3111 25.0085C69.9171 25.4915 70.8641 25.8939 72.152 26.2159L75.3906 27.0114C77.3414 27.4848 78.795 28.2093 79.7514 29.1847C80.7079 30.1506 81.1861 31.3958 81.1861 32.9205C81.1861 34.1705 80.8262 35.2879 80.1065 36.2727C79.3963 37.2576 78.402 38.0341 77.1236 38.6023C75.8452 39.1705 74.3584 39.4545 72.6634 39.4545C70.438 39.4545 68.5961 38.9716 67.1378 38.0057C65.6795 37.0398 64.7562 35.6288 64.3679 33.7727L67.5497 32.9773C67.8527 34.1515 68.4257 35.0322 69.2685 35.6193C70.1207 36.2064 71.2334 36.5 72.6065 36.5C74.169 36.5 75.4096 36.1686 76.3281 35.5057C77.2562 34.8333 77.7202 34.0284 77.7202 33.0909C77.7202 32.3333 77.455 31.6989 76.9247 31.1875C76.3944 30.6667 75.58 30.2784 74.4815 30.0227L70.8452 29.1705C68.8471 28.697 67.3793 27.9631 66.4418 26.9688C65.5137 25.965 65.0497 24.7102 65.0497 23.2045C65.0497 21.9735 65.3954 20.8845 66.0866 19.9375C66.7874 18.9905 67.7391 18.2472 68.9418 17.7074C70.1539 17.1676 71.527 16.8977 73.0611 16.8977C75.2202 16.8977 76.9152 17.3712 78.1463 18.3182C79.3868 19.2652 80.2675 20.5152 80.7884 22.0682ZM95.7209 17.1818V20.0227H84.4141V17.1818H95.7209ZM87.7095 11.9545H91.0618V32.75C91.0618 33.697 91.1991 34.4072 91.4737 34.8807C91.7578 35.3447 92.1177 35.6572 92.5533 35.8182C92.9983 35.9697 93.4671 36.0455 93.9595 36.0455C94.3288 36.0455 94.6319 36.0265 94.8686 35.9886C95.1054 35.9413 95.2947 35.9034 95.4368 35.875L96.1186 38.8864C95.8913 38.9716 95.5741 39.0568 95.1669 39.142C94.7597 39.2367 94.2436 39.2841 93.6186 39.2841C92.6716 39.2841 91.7436 39.0805 90.8345 38.6733C89.9349 38.2661 89.1868 37.6458 88.5902 36.8125C88.0031 35.9792 87.7095 34.928 87.7095 33.6591V11.9545ZM109.393 39.4545C107.423 39.4545 105.695 38.9858 104.208 38.0483C102.731 37.1108 101.576 35.7992 100.742 34.1136C99.9183 32.428 99.5064 30.4583 99.5064 28.2045C99.5064 25.9318 99.9183 23.9479 100.742 22.2528C101.576 20.5578 102.731 19.2415 104.208 18.304C105.695 17.3665 107.423 16.8977 109.393 16.8977C111.362 16.8977 113.086 17.3665 114.563 18.304C116.05 19.2415 117.205 20.5578 118.029 22.2528C118.862 23.9479 119.279 25.9318 119.279 28.2045C119.279 30.4583 118.862 32.428 118.029 34.1136C117.205 35.7992 116.05 37.1108 114.563 38.0483C113.086 38.9858 111.362 39.4545 109.393 39.4545ZM109.393 36.4432C110.889 36.4432 112.12 36.0597 113.086 35.2926C114.052 34.5256 114.767 33.517 115.231 32.267C115.695 31.017 115.927 29.6629 115.927 28.2045C115.927 26.7462 115.695 25.3873 115.231 24.1278C114.767 22.8684 114.052 21.8504 113.086 21.0739C112.12 20.2973 110.889 19.9091 109.393 19.9091C107.897 19.9091 106.665 20.2973 105.7 21.0739C104.734 21.8504 104.019 22.8684 103.555 24.1278C103.091 25.3873 102.859 26.7462 102.859 28.2045C102.859 29.6629 103.091 31.017 103.555 32.267C104.019 33.517 104.734 34.5256 105.7 35.2926C106.665 36.0597 107.897 36.4432 109.393 36.4432ZM133.26 39.4545C131.29 39.4545 129.562 38.9858 128.075 38.0483C126.598 37.1108 125.443 35.7992 124.609 34.1136C123.786 32.428 123.374 30.4583 123.374 28.2045C123.374 25.9318 123.786 23.9479 124.609 22.2528C125.443 20.5578 126.598 19.2415 128.075 18.304C129.562 17.3665 131.29 16.8977 133.26 16.8977C135.23 16.8977 136.953 17.3665 138.43 18.304C139.917 19.2415 141.072 20.5578 141.896 22.2528C142.73 23.9479 143.146 25.9318 143.146 28.2045C143.146 30.4583 142.73 32.428 141.896 34.1136C141.072 35.7992 139.917 37.1108 138.43 38.0483C136.953 38.9858 135.23 39.4545 133.26 39.4545ZM133.26 36.4432C134.756 36.4432 135.987 36.0597 136.953 35.2926C137.919 34.5256 138.634 33.517 139.098 32.267C139.562 31.017 139.794 29.6629 139.794 28.2045C139.794 26.7462 139.562 25.3873 139.098 24.1278C138.634 22.8684 137.919 21.8504 136.953 21.0739C135.987 20.2973 134.756 19.9091 133.26 19.9091C131.764 19.9091 130.533 20.2973 129.567 21.0739C128.601 21.8504 127.886 22.8684 127.422 24.1278C126.958 25.3873 126.726 26.7462 126.726 28.2045C126.726 29.6629 126.958 31.017 127.422 32.267C127.886 33.517 128.601 34.5256 129.567 35.2926C130.533 36.0597 131.764 36.4432 133.26 36.4432ZM151.616 9.90909V39H148.263V9.90909H151.616Z" fill="black"/>
</svg>
