<svg width="161" height="43" viewBox="0 0 161 43" fill="none" xmlns="http://www.w3.org/2000/svg">
<path d="M2.16 33.432V13.56H5.436V10.284H15.588V13.56H18.9V23.64H15.588V26.916H5.796V33.432H2.16ZM5.796 23.28H15.228V13.92H5.796V23.28ZM25.4399 33.432V30.192H22.1639V20.076H25.4399V16.8H35.5919V20.076H38.9039V30.192H35.5919V33.432H25.4399ZM25.7999 29.832H35.2319V20.4H25.7999V29.832ZM43.2577 33.432V20.076H46.5337V16.8H56.6857V20.076H59.9977V23.64H56.3257V20.4H46.8937V33.432H43.2577ZM70.8674 33.432V30.192H67.6274V20.4H64.3514V16.8H67.6274V10.284H71.2274V16.8H81.0914V20.4H71.2274V29.832H80.7314V26.556H84.3674V30.192H81.0914V33.432H70.8674ZM88.0116 33.432V13.56H91.2876V10.284H101.44V13.56H104.752V17.16H101.08V13.92H91.6476V20.076H98.1996V23.64H91.6476V33.432H88.0116ZM108.795 33.432V30.192H105.519V20.076H108.795V16.8H118.947V20.076H122.259V30.192H118.947V33.432H108.795ZM109.155 29.832H118.587V20.4H109.155V29.832ZM126.613 33.432V10.284H130.249V33.432H126.613ZM134.594 33.432V16.8H138.23V33.432H134.594ZM134.594 13.92V10.284H138.23V13.92H134.594ZM145.147 33.432V30.192H141.871V20.076H145.147V16.8H155.299V20.076H158.611V30.192H155.299V33.432H145.147ZM145.507 29.832H154.939V20.4H145.507V29.832Z" fill="#2B2A2D"/>
</svg>
