<svg width="276" height="48" viewBox="0 0 276 48" fill="none" xmlns="http://www.w3.org/2000/svg">
<path d="M31.5 23.625V37.125C31.5 37.7217 31.2629 38.294 30.841 38.716C30.419 39.1379 29.8467 39.375 29.25 39.375H6.75C6.15326 39.375 5.58097 39.1379 5.15901 38.716C4.73705 38.294 4.5 37.7217 4.5 37.125V23.625C4.5 23.0283 4.73705 22.456 5.15901 22.034C5.58097 21.6121 6.15326 21.375 6.75 21.375H29.25C29.8467 21.375 30.419 21.6121 30.841 22.034C31.2629 22.456 31.5 23.0283 31.5 23.625ZM7.875 19.125H28.125C28.4234 19.125 28.7095 19.0065 28.9205 18.7955C29.1315 18.5845 29.25 18.2984 29.25 18C29.25 17.7016 29.1315 17.4155 28.9205 17.2045C28.7095 16.9935 28.4234 16.875 28.125 16.875H7.875C7.57663 16.875 7.29048 16.9935 7.07951 17.2045C6.86853 17.4155 6.75 17.7016 6.75 18C6.75 18.2984 6.86853 18.5845 7.07951 18.7955C7.29048 19.0065 7.57663 19.125 7.875 19.125ZM10.125 14.625H25.875C26.1734 14.625 26.4595 14.5065 26.6705 14.2955C26.8815 14.0845 27 13.7984 27 13.5C27 13.2016 26.8815 12.9155 26.6705 12.7045C26.4595 12.4935 26.1734 12.375 25.875 12.375H10.125C9.82663 12.375 9.54048 12.4935 9.32951 12.7045C9.11853 12.9155 9 13.2016 9 13.5C9 13.7984 9.11853 14.0845 9.32951 14.2955C9.54048 14.5065 9.82663 14.625 10.125 14.625Z" fill="black"/>
<path d="M14.4922 27.9688C14.9077 28.7478 15.125 29.6171 15.125 30.5C15.125 31.3829 14.9077 32.2522 14.4922 33.0313" stroke="white" stroke-width="1.5" stroke-linecap="round" stroke-linejoin="round"/>
<path d="M20.3984 24.5938C21.3679 26.4115 21.875 28.4399 21.875 30.5C21.875 32.5601 21.3679 34.5885 20.3984 36.4063" stroke="white" stroke-width="1.5" stroke-linecap="round" stroke-linejoin="round"/>
<path d="M17.4453 26.2812C18.1378 27.5796 18.5 29.0285 18.5 30.5C18.5 31.9715 18.1378 33.4204 17.4453 34.7188" stroke="white" stroke-width="1.5" stroke-linecap="round" stroke-linejoin="round"/>
<path d="M42.5909 14.3267V9.90909H65.8011V14.3267H56.8097V39H51.5824V14.3267H42.5909ZM70.0483 39V17.1818H75.1903V39H70.0483ZM72.6335 14.0852C71.8191 14.0852 71.1184 13.8153 70.5312 13.2756C69.9441 12.7263 69.6506 12.0682 69.6506 11.3011C69.6506 10.5246 69.9441 9.86648 70.5312 9.3267C71.1184 8.77746 71.8191 8.50284 72.6335 8.50284C73.4574 8.50284 74.1581 8.77746 74.7358 9.3267C75.3229 9.86648 75.6165 10.5246 75.6165 11.3011C75.6165 12.0682 75.3229 12.7263 74.7358 13.2756C74.1581 13.8153 73.4574 14.0852 72.6335 14.0852ZM80.478 39V17.1818H85.3928V20.8892H85.6484C86.103 19.6392 86.8558 18.6638 87.907 17.9631C88.9581 17.2528 90.2128 16.8977 91.6712 16.8977C93.1484 16.8977 94.3937 17.2576 95.407 17.9773C96.4297 18.6875 97.1494 19.6581 97.5661 20.8892H97.7933C98.2763 19.6771 99.0907 18.7112 100.237 17.9915C101.392 17.2623 102.76 16.8977 104.342 16.8977C106.349 16.8977 107.987 17.5322 109.256 18.8011C110.525 20.0701 111.16 21.9214 111.16 24.3551V39H106.004V25.1506C106.004 23.7964 105.644 22.8068 104.924 22.1818C104.204 21.5473 103.324 21.2301 102.282 21.2301C101.041 21.2301 100.071 21.6184 99.37 22.3949C98.6787 23.1619 98.3331 24.161 98.3331 25.392V39H93.2905V24.9375C93.2905 23.8106 92.9496 22.911 92.2678 22.2386C91.5954 21.5663 90.7147 21.2301 89.6257 21.2301C88.8871 21.2301 88.2147 21.4195 87.6087 21.7983C87.0026 22.1676 86.5196 22.6932 86.1598 23.375C85.8 24.0473 85.62 24.8333 85.62 25.733V39H80.478ZM126.036 39.4261C123.848 39.4261 121.959 38.9716 120.368 38.0625C118.786 37.1439 117.57 35.8466 116.717 34.1705C115.865 32.4848 115.439 30.5009 115.439 28.2188C115.439 25.9744 115.865 24.0047 116.717 22.3097C117.579 20.6051 118.782 19.2794 120.325 18.3324C121.869 17.3759 123.682 16.8977 125.766 16.8977C127.11 16.8977 128.379 17.1155 129.572 17.5511C130.775 17.9773 131.836 18.6402 132.754 19.5398C133.682 20.4394 134.411 21.5852 134.942 22.9773C135.472 24.3598 135.737 26.0076 135.737 27.9205V29.4972H117.854V26.0312H130.808C130.799 25.0464 130.586 24.1705 130.169 23.4034C129.752 22.6269 129.17 22.0161 128.422 21.571C127.683 21.1259 126.821 20.9034 125.837 20.9034C124.786 20.9034 123.862 21.1591 123.067 21.6705C122.271 22.1723 121.651 22.8352 121.206 23.6591C120.77 24.4735 120.548 25.3684 120.538 26.3438V29.3693C120.538 30.6383 120.77 31.7273 121.234 32.6364C121.698 33.536 122.347 34.2273 123.18 34.7102C124.014 35.1837 124.989 35.4205 126.107 35.4205C126.855 35.4205 127.532 35.3163 128.138 35.108C128.744 34.8902 129.269 34.5729 129.714 34.1562C130.16 33.7396 130.496 33.2235 130.723 32.608L135.524 33.1477C135.221 34.4167 134.643 35.5246 133.791 36.4716C132.948 37.4091 131.869 38.1383 130.553 38.6591C129.236 39.1705 127.731 39.4261 126.036 39.4261ZM150.982 17.1818V21.1591H138.44V17.1818H150.982ZM141.536 11.9545H146.678V32.4375C146.678 33.1288 146.782 33.6591 146.991 34.0284C147.209 34.3883 147.493 34.6345 147.843 34.767C148.193 34.8996 148.582 34.9659 149.008 34.9659C149.33 34.9659 149.623 34.9422 149.888 34.8949C150.163 34.8475 150.371 34.8049 150.513 34.767L151.38 38.7869C151.105 38.8816 150.712 38.9858 150.201 39.0994C149.699 39.2131 149.084 39.2794 148.354 39.2983C147.067 39.3362 145.906 39.142 144.874 38.7159C143.842 38.2803 143.023 37.608 142.417 36.6989C141.82 35.7898 141.527 34.6534 141.536 33.2898V11.9545ZM155.283 39V17.1818H160.268V20.8182H160.496C160.893 19.5587 161.575 18.5881 162.541 17.9062C163.517 17.215 164.629 16.8693 165.879 16.8693C166.163 16.8693 166.481 16.8835 166.831 16.9119C167.191 16.9309 167.489 16.964 167.726 17.0114V21.7415C167.508 21.6657 167.162 21.5994 166.689 21.5426C166.225 21.4763 165.775 21.4432 165.339 21.4432C164.402 21.4432 163.559 21.6468 162.811 22.054C162.072 22.4517 161.49 23.0057 161.064 23.7159C160.638 24.4261 160.425 25.2453 160.425 26.1733V39H155.283ZM177.03 39.4403C175.647 39.4403 174.402 39.1941 173.294 38.7017C172.196 38.1998 171.324 37.4612 170.68 36.4858C170.046 35.5104 169.729 34.3078 169.729 32.8778C169.729 31.6468 169.956 30.6288 170.411 29.8239C170.865 29.0189 171.485 28.375 172.271 27.892C173.057 27.4091 173.943 27.0445 174.928 26.7983C175.922 26.5426 176.949 26.358 178.01 26.2443C179.288 26.1117 180.325 25.9934 181.121 25.8892C181.916 25.7756 182.494 25.6051 182.854 25.3778C183.223 25.1411 183.408 24.7765 183.408 24.2841V24.1989C183.408 23.1288 183.09 22.3002 182.456 21.7131C181.821 21.1259 180.908 20.8324 179.714 20.8324C178.455 20.8324 177.456 21.107 176.717 21.6562C175.988 22.2055 175.496 22.8542 175.24 23.6023L170.439 22.9205C170.818 21.5947 171.443 20.4867 172.314 19.5966C173.185 18.697 174.25 18.0246 175.51 17.5795C176.769 17.125 178.161 16.8977 179.686 16.8977C180.737 16.8977 181.784 17.0208 182.825 17.267C183.867 17.5133 184.819 17.9205 185.68 18.4886C186.542 19.0473 187.233 19.8097 187.754 20.7756C188.285 21.7415 188.55 22.9489 188.55 24.3977V39H183.607V36.0028H183.436C183.124 36.6089 182.683 37.1771 182.115 37.7074C181.556 38.2282 180.851 38.6496 179.999 38.9716C179.156 39.2841 178.166 39.4403 177.03 39.4403ZM178.365 35.6619C179.397 35.6619 180.292 35.4583 181.05 35.0511C181.807 34.6345 182.39 34.0852 182.797 33.4034C183.214 32.7216 183.422 31.9782 183.422 31.1733V28.6023C183.261 28.7348 182.986 28.858 182.598 28.9716C182.219 29.0852 181.793 29.1847 181.32 29.2699C180.846 29.3551 180.377 29.4309 179.913 29.4972C179.449 29.5634 179.047 29.6203 178.706 29.6676C177.939 29.7718 177.252 29.9422 176.646 30.179C176.04 30.4157 175.562 30.7472 175.212 31.1733C174.861 31.59 174.686 32.1297 174.686 32.7926C174.686 33.7396 175.032 34.4545 175.723 34.9375C176.414 35.4205 177.295 35.6619 178.365 35.6619ZM203.237 39.4261C201.059 39.4261 199.189 38.9479 197.626 37.9915C196.073 37.035 194.875 35.714 194.033 34.0284C193.199 32.3333 192.783 30.3826 192.783 28.1761C192.783 25.9602 193.209 24.0047 194.061 22.3097C194.913 20.6051 196.116 19.2794 197.669 18.3324C199.232 17.3759 201.078 16.8977 203.209 16.8977C204.98 16.8977 206.547 17.2244 207.911 17.8778C209.284 18.5218 210.377 19.4356 211.192 20.6193C212.006 21.7936 212.47 23.1667 212.584 24.7386H207.669C207.47 23.6875 206.997 22.8116 206.249 22.1108C205.51 21.4006 204.52 21.0455 203.28 21.0455C202.229 21.0455 201.305 21.3295 200.51 21.8977C199.714 22.4564 199.094 23.2614 198.649 24.3125C198.214 25.3636 197.996 26.6231 197.996 28.0909C197.996 29.5777 198.214 30.8561 198.649 31.9261C199.085 32.9867 199.696 33.8059 200.482 34.3835C201.277 34.9517 202.21 35.2358 203.28 35.2358C204.037 35.2358 204.714 35.0937 205.311 34.8097C205.917 34.5161 206.424 34.0947 206.831 33.5455C207.238 32.9962 207.518 32.3286 207.669 31.5426H212.584C212.461 33.0862 212.006 34.4545 211.22 35.6477C210.434 36.8314 209.364 37.7595 208.01 38.4318C206.656 39.0947 205.065 39.4261 203.237 39.4261ZM221.494 32.1534L221.479 25.946H222.303L230.144 17.1818H236.153L226.508 27.9205H225.442L221.494 32.1534ZM216.806 39V9.90909H221.948V39H216.806ZM230.499 39L223.397 29.071L226.863 25.4489L236.65 39H230.499ZM248.34 39.4261C246.153 39.4261 244.263 38.9716 242.673 38.0625C241.091 37.1439 239.874 35.8466 239.022 34.1705C238.17 32.4848 237.744 30.5009 237.744 28.2188C237.744 25.9744 238.17 24.0047 239.022 22.3097C239.884 20.6051 241.086 19.2794 242.63 18.3324C244.174 17.3759 245.987 16.8977 248.07 16.8977C249.415 16.8977 250.684 17.1155 251.877 17.5511C253.08 17.9773 254.14 18.6402 255.059 19.5398C255.987 20.4394 256.716 21.5852 257.246 22.9773C257.777 24.3598 258.042 26.0076 258.042 27.9205V29.4972H240.158V26.0312H253.113C253.103 25.0464 252.89 24.1705 252.474 23.4034C252.057 22.6269 251.475 22.0161 250.727 21.571C249.988 21.1259 249.126 20.9034 248.141 20.9034C247.09 20.9034 246.167 21.1591 245.371 21.6705C244.576 22.1723 243.956 22.8352 243.511 23.6591C243.075 24.4735 242.853 25.3684 242.843 26.3438V29.3693C242.843 30.6383 243.075 31.7273 243.539 32.6364C244.003 33.536 244.652 34.2273 245.485 34.7102C246.318 35.1837 247.294 35.4205 248.411 35.4205C249.159 35.4205 249.836 35.3163 250.442 35.108C251.049 34.8902 251.574 34.5729 252.019 34.1562C252.464 33.7396 252.8 33.2235 253.028 32.608L257.829 33.1477C257.526 34.4167 256.948 35.5246 256.096 36.4716C255.253 37.4091 254.174 38.1383 252.857 38.6591C251.541 39.1705 250.035 39.4261 248.34 39.4261ZM262.392 39V17.1818H267.378V20.8182H267.605C268.003 19.5587 268.685 18.5881 269.651 17.9062C270.626 17.215 271.739 16.8693 272.989 16.8693C273.273 16.8693 273.59 16.8835 273.94 16.9119C274.3 16.9309 274.598 16.964 274.835 17.0114V21.7415C274.617 21.6657 274.272 21.5994 273.798 21.5426C273.334 21.4763 272.884 21.4432 272.449 21.4432C271.511 21.4432 270.669 21.6468 269.92 22.054C269.182 22.4517 268.599 23.0057 268.173 23.7159C267.747 24.4261 267.534 25.2453 267.534 26.1733V39H262.392Z" fill="black"/>
</svg>
